<svg id="svg" xmlns="http://www.w3.org/2000/svg" xmlns:xlink="http://www.w3.org/1999/xlink" width="400" height="325.3658536585366" viewBox="0, 0, 400,325.3658536585366"><g id="svgg"><path id="path0" d="M67.317 1.014 C 44.904 3.857,29.060 25.961,33.372 48.372 C 37.066 67.570,52.607 80.258,73.110 80.811 C 82.468 81.064,82.203 80.949,90.489 88.355 C 94.203 91.674,98.605 95.598,100.272 97.073 C 103.479 99.912,140.876 133.482,175.732 164.811 C 194.410 181.599,197.402 184.583,196.463 185.483 C 196.396 185.547,154.959 185.712,104.380 185.849 L 12.418 186.098 9.178 187.693 C 5.466 189.520,3.324 191.727,1.513 195.587 L 0.244 198.293 0.244 238.293 L 0.244 278.293 1.595 281.045 C 4.987 287.952,8.969 289.944,19.806 290.158 L 28.149 290.322 28.423 284.064 C 30.239 242.517,74.792 216.814,111.833 235.945 C 125.523 243.015,136.122 255.727,140.329 270.121 C 141.434 273.902,141.589 273.902,142.635 270.122 C 145.715 258.986,155.019 246.307,165.080 239.534 C 197.053 218.010,239.868 232.646,251.949 269.229 L 253.306 273.335 255.105 268.253 C 268.759 229.686,315.426 217.008,346.642 243.384 C 358.681 253.556,366.311 269.682,366.334 285.000 L 366.341 290.244 376.567 290.244 C 390.726 290.244,394.413 288.679,398.153 281.082 L 399.756 277.825 399.756 238.049 L 399.756 198.272 398.161 195.031 C 396.333 191.319,394.127 189.177,390.266 187.366 L 387.561 186.098 329.756 185.854 L 271.951 185.610 269.892 184.509 C 267.810 183.397,265.247 181.166,239.775 158.293 C 222.748 143.003,202.954 125.246,194.634 117.796 C 191.280 114.794,181.834 106.324,173.641 98.973 C 165.448 91.623,153.970 81.339,148.132 76.120 C 140.038 68.882,137.553 66.393,137.662 65.632 C 137.819 64.532,210.005 63.767,212.814 64.835 C 213.791 65.206,214.053 65.726,214.295 67.765 C 214.890 72.791,217.529 76.813,221.951 79.432 L 224.146 80.732 263.590 80.865 L 303.034 80.998 305.564 79.840 C 311.282 77.222,314.308 72.454,314.047 66.474 C 313.841 61.764,315.452 62.012,284.843 61.979 C 255.334 61.947,256.130 62.047,251.919 57.837 C 248.174 54.091,247.805 52.557,247.805 40.732 C 247.805 27.581,249.110 24.197,255.426 20.971 L 257.805 19.756 284.878 19.512 C 316.152 19.230,314.146 19.543,314.146 14.948 C 314.146 10.633,312.963 7.549,310.284 4.881 C 305.779 0.395,309.527 0.732,264.146 0.732 L 224.146 0.732 222.173 1.788 C 217.941 4.054,215.003 8.546,214.240 13.916 L 213.895 16.341 211.704 16.602 C 207.481 17.105,109.118 16.562,106.999 16.024 C 105.591 15.666,103.512 14.261,100.170 11.408 C 90.056 2.772,79.581 -0.542,67.317 1.014 M80.582 248.790 C 52.192 252.716,37.927 285.028,54.195 308.560 C 70.692 332.425,106.849 329.676,119.937 303.561 C 133.401 276.698,110.386 244.669,80.582 248.790 M192.439 248.805 C 160.692 253.693,148.149 291.137,170.707 313.680 C 191.697 334.655,226.951 324.958,234.632 296.098 C 241.445 270.496,218.512 244.791,192.439 248.805 M303.922 248.839 C 272.789 253.519,260.031 291.395,282.171 313.415 C 309.741 340.835,355.357 315.410,346.497 277.561 C 342.186 259.146,322.720 246.014,303.922 248.839 " stroke="none" fill="#000000" fill-rule="evenodd"></path></g></svg>