<svg id="svg" xmlns="http://www.w3.org/2000/svg" xmlns:xlink="http://www.w3.org/1999/xlink" width="400" height="400" viewBox="0, 0, 400,400">
  <g id="svgg">
    <path id="path0" d="M191.041 11.815 C 150.285 21.193,143.277 76.257,180.501 94.638 C 218.069 113.189,257.857 74.372,240.231 36.365 C 231.763 18.106,210.285 7.387,191.041 11.815 M92.102 52.155 C 61.686 57.715,50.231 93.820,71.937 115.715 C 95.018 138.998,135.495 122.207,135.432 89.376 C 135.388 66.285,114.230 48.110,92.102 52.155 M296.304 52.196 C 267.067 57.446,254.802 92.790,274.781 114.219 C 298.148 139.282,339.474 123.577,339.584 89.592 C 339.660 66.106,318.871 48.144,296.304 52.196 M192.742 109.790 C 189.812 110.702,187.376 112.903,185.214 116.591 C 182.465 121.281,182.465 122.021,185.217 130.155 L 187.619 137.253 186.279 153.056 C 185.542 161.748,184.885 168.914,184.818 168.981 C 184.752 169.047,178.906 158.330,171.826 145.166 L 158.954 121.231 156.552 122.630 C 132.156 136.838,118.624 163.618,118.586 197.760 L 118.577 206.061 200.264 206.061 L 281.950 206.061 281.949 198.024 C 281.947 161.358,268.049 133.318,244.775 123.025 C 240.966 121.341,243.097 118.366,228.111 146.288 C 221.370 158.849,215.795 169.066,215.721 168.993 C 215.648 168.920,214.985 161.748,214.248 153.056 L 212.908 137.253 215.310 130.155 C 218.348 121.176,217.417 116.663,211.525 111.806 C 208.348 109.188,198.186 108.097,192.742 109.790 M74.041 135.941 C 57.695 140.229,45.932 151.845,41.512 168.067 C 40.544 171.617,40.394 173.986,40.183 189.065 L 39.945 206.061 73.727 206.061 L 107.510 206.061 107.510 198.211 C 107.510 176.743,112.311 158.907,122.384 142.958 C 123.548 141.115,124.408 139.515,124.295 139.402 C 123.626 138.734,118.234 136.800,114.625 135.933 C 108.479 134.459,79.671 134.464,74.041 135.941 M285.112 135.971 C 282.938 136.510,280.261 137.329,279.163 137.793 L 277.166 138.635 278.548 140.859 C 287.919 155.940,293.017 176.056,293.017 197.948 L 293.017 206.061 326.795 206.061 L 360.574 206.061 360.345 189.328 C 360.084 170.191,359.726 167.977,355.515 159.420 C 349.857 147.923,338.614 138.930,326.219 135.986 C 319.784 134.457,291.258 134.447,285.112 135.971 M40.155 234.387 L 40.316 253.755 41.718 256.746 C 43.592 260.743,46.721 264.027,50.724 266.197 L 54.018 267.984 64.822 268.250 C 78.758 268.593,79.416 268.912,82.214 276.680 C 82.893 278.564,84.356 282.095,85.466 284.527 C 89.094 292.478,88.815 293.348,79.600 302.767 C 69.029 313.572,67.172 320.393,72.222 329.868 C 74.703 334.524,99.701 359.197,104.084 361.317 C 112.838 365.550,119.903 363.351,130.377 353.133 C 139.459 344.273,140.504 343.875,146.915 346.820 C 148.866 347.715,152.596 349.270,155.204 350.275 C 164.270 353.767,164.086 353.427,164.439 367.300 C 164.807 381.735,167.077 386.628,175.348 390.816 L 178.393 392.358 200.264 392.358 L 222.134 392.358 225.316 390.695 C 233.600 386.363,235.719 381.760,236.088 367.300 C 236.441 353.427,236.257 353.767,245.323 350.275 C 247.931 349.270,251.661 347.715,253.612 346.820 C 260.023 343.875,261.068 344.273,270.150 353.133 C 280.587 363.314,287.589 365.511,296.422 361.375 C 300.752 359.348,325.781 334.605,328.318 329.844 C 333.353 320.399,331.485 313.559,320.927 302.767 C 311.712 293.348,311.433 292.478,315.061 284.527 C 316.171 282.095,317.634 278.564,318.313 276.680 C 321.111 268.912,321.769 268.593,335.705 268.250 L 346.509 267.984 349.803 266.197 C 353.806 264.027,356.935 260.743,358.809 256.746 L 360.211 253.755 360.372 234.387 L 360.534 215.020 353.653 215.020 L 346.772 215.020 346.772 232.701 C 346.772 255.857,347.494 254.543,334.758 254.549 C 317.949 254.555,310.479 258.517,306.440 269.565 C 305.911 271.014,304.163 275.165,302.556 278.788 L 299.634 285.375 299.619 291.173 C 299.599 299.431,300.805 301.771,309.924 311.163 C 319.935 321.475,320.381 319.773,303.176 336.891 C 287.169 352.815,289.131 352.374,278.833 342.373 C 266.256 330.160,260.678 328.911,246.266 335.086 C 242.269 336.799,238.406 338.381,237.681 338.602 C 226.775 341.928,222.398 349.774,222.398 366.001 C 222.398 375.389,222.194 376.348,219.787 378.244 C 218.618 379.165,181.909 379.165,180.740 378.244 C 178.333 376.348,178.129 375.389,178.129 366.001 C 178.129 349.774,173.752 341.928,162.846 338.602 C 162.121 338.381,158.258 336.799,154.261 335.086 C 139.849 328.911,134.271 330.160,121.694 342.373 C 111.396 352.374,113.358 352.815,97.351 336.891 C 80.148 319.776,80.594 321.472,90.590 311.177 C 99.714 301.779,100.927 299.431,100.912 291.184 L 100.902 285.375 97.976 278.788 C 96.366 275.165,94.616 271.014,94.087 269.565 C 90.016 258.427,82.636 254.568,65.349 254.537 C 53.042 254.515,53.755 255.857,53.755 232.709 L 53.755 215.020 46.874 215.020 L 39.993 215.020 40.155 234.387 M106.262 216.733 C 93.631 286.227,161.947 345.210,229.688 323.298 C 273.887 309.001,303.516 260.007,294.294 216.469 L 293.987 215.020 287.107 215.020 L 280.226 215.020 280.582 217.523 C 281.851 226.422,282.052 229.664,281.755 236.364 C 279.165 294.761,217.153 331.581,164.427 306.028 C 137.745 293.096,120.150 266.148,118.772 236.100 C 118.476 229.656,118.684 226.371,119.945 217.523 L 120.301 215.020 113.437 215.020 L 106.573 215.020 106.262 216.733 " stroke="none" fill="#3a4354" fill-rule="evenodd">
    </path>
  </g>
</svg>