<svg id="svg" xmlns="http://www.w3.org/2000/svg" xmlns:xlink="http://www.w3.org/1999/xlink" width="400" height="521.2765957446809" viewBox="0, 0, 400,521.2765957446809"><g id="svgg"><path id="path0" d="M178.989 0.361 C 162.199 2.880,148.277 15.610,144.338 32.045 L 143.351 36.164 137.718 36.167 C 96.701 36.189,87.038 92.194,125.620 106.288 L 129.521 107.713 200.000 107.713 L 270.479 107.713 274.380 106.288 C 312.232 92.460,304.087 38.110,263.882 36.236 L 256.754 35.904 255.580 31.594 C 251.498 16.620,240.746 5.685,225.779 1.288 C 222.701 0.384,183.954 -0.383,178.989 0.361 M80.925 25.042 C 41.949 28.802,10.395 57.204,2.050 96.038 L 0.798 101.862 0.798 273.138 L 0.798 444.415 1.994 449.812 C 10.691 489.071,41.582 516.766,81.117 520.748 C 92.318 521.877,319.914 521.207,325.798 520.029 C 368.025 511.570,396.889 479.074,399.474 437.081 C 400.116 426.647,400.136 119.422,399.495 109.043 C 397.472 76.294,379.181 48.428,350.142 33.854 C 336.255 26.885,321.306 24.201,298.443 24.574 L 288.641 24.734 292.020 26.819 C 301.910 32.920,311.578 45.925,314.691 57.314 C 315.521 60.350,315.725 60.638,317.040 60.638 C 319.825 60.638,329.036 63.321,333.354 65.390 C 351.013 73.852,361.995 89.662,363.858 109.307 C 364.896 120.252,364.242 438.847,363.173 443.098 C 357.888 464.116,343.755 478.878,323.825 484.196 L 319.415 485.372 200.000 485.372 L 80.585 485.372 76.064 484.159 C 54.124 478.270,38.526 459.967,36.141 437.314 C 35.424 430.494,35.486 114.618,36.207 108.157 C 38.901 83.995,58.460 63.455,81.225 60.880 L 84.434 60.517 85.340 57.253 C 88.437 46.101,97.187 34.048,106.884 27.577 C 109.095 26.102,111.004 24.798,111.126 24.681 C 111.529 24.293,85.457 24.605,80.925 25.042 M111.436 134.905 C 110.851 135.051,108.457 135.652,106.117 136.240 C 62.378 147.229,52.622 207.413,90.608 231.915 C 95.978 235.378,95.829 235.024,92.649 236.777 C 58.591 255.552,58.591 309.342,92.649 328.117 C 95.826 329.868,95.882 329.647,91.613 332.167 C 69.494 345.222,60.424 376.158,71.773 399.843 C 91.757 441.552,151.502 440.181,169.257 397.606 C 179.254 373.635,169.910 345.102,147.678 331.714 L 144.624 329.876 148.509 327.364 C 181.259 306.189,181.543 259.181,149.049 237.900 L 144.641 235.014 147.833 233.065 C 187.137 209.073,179.094 149.725,134.728 136.366 C 130.161 134.991,114.915 134.034,111.436 134.905 M148.521 161.726 C 154.275 163.324,157.343 169.907,154.830 175.266 C 153.601 177.888,119.066 212.450,116.854 213.273 C 111.450 215.282,109.596 214.161,96.430 200.921 C 82.930 187.346,82.270 186.022,85.809 179.628 C 90.021 172.019,96.476 172.963,106.251 182.618 L 113.300 189.580 126.996 175.954 C 142.371 160.657,143.052 160.207,148.521 161.726 M195.707 170.408 C 179.468 174.787,177.681 196.828,192.992 203.904 L 195.479 205.053 253.955 205.195 C 304.272 205.318,312.808 205.228,315.135 204.551 C 332.314 199.557,331.868 174.992,314.516 170.472 C 310.409 169.402,199.658 169.343,195.707 170.408 M150.838 257.708 C 154.830 260.048,156.736 265.059,155.316 269.481 C 154.526 271.941,121.284 305.775,117.973 307.489 C 111.974 310.595,109.079 309.010,95.446 295.149 C 82.632 282.122,81.483 279.164,86.856 273.045 C 92.074 267.102,97.180 268.320,106.761 277.792 L 113.321 284.277 126.208 271.439 C 142.557 255.152,144.566 254.032,150.838 257.708 M194.023 265.699 C 179.430 271.059,178.352 291.568,192.301 298.432 L 194.947 299.734 254.350 299.874 C 313.072 300.012,313.787 300.001,316.663 298.925 C 331.454 293.391,331.466 271.507,316.681 265.975 C 312.942 264.576,197.785 264.317,194.023 265.699 M149.300 351.630 C 152.718 352.921,155.828 357.467,155.828 361.170 C 155.828 364.993,154.279 366.855,136.097 384.899 C 111.936 408.876,114.280 408.473,97.228 391.589 C 82.855 377.358,81.088 373.002,87.324 367.180 C 92.829 362.040,97.399 363.304,106.845 372.578 L 113.608 379.219 126.884 365.886 C 142.164 350.541,143.750 349.532,149.300 351.630 M193.421 360.878 C 176.877 367.706,179.637 391.714,197.306 394.670 C 199.732 395.076,218.088 395.208,257.447 395.101 L 314.096 394.947 317.085 393.545 C 330.750 387.138,331.628 368.908,318.617 361.744 L 315.160 359.840 255.851 359.715 L 196.543 359.590 193.421 360.878 " stroke="none" fill="#000000" fill-rule="evenodd"></path></g></svg>