<svg id="svg" xmlns="http://www.w3.org/2000/svg" xmlns:xlink="http://www.w3.org/1999/xlink" width="400" height="206.74157303370788" viewBox="0, 0, 400,206.74157303370788"><g id="svgg"><path id="path0" d="M54.309 58.563 C 28.147 82.120,6.742 102.189,6.742 103.159 C 6.742 106.401,101.669 189.888,105.355 189.888 C 108.375 189.888,109.098 186.569,109.638 170.225 L 110.287 150.562 196.629 150.562 L 282.971 150.562 283.620 170.225 C 284.185 187.333,284.789 189.888,288.268 189.888 C 292.291 189.888,386.517 106.875,386.517 103.330 C 386.517 98.604,292.292 15.372,287.893 16.212 C 284.951 16.774,284.148 20.595,283.620 36.542 L 282.971 56.180 196.542 56.180 L 110.112 56.180 110.112 35.955 C 110.112 8.214,110.316 8.131,54.309 58.563 " stroke="none" fill="#000000" fill-rule="evenodd"></path></g></svg>